Coordinates
version=1
nRows=17
nColumns=38
inDegrees=yes

Units are S.I. units (second, meters, Newtons, ...)
Angles are in degrees.

endheader
time	pelvis_tilt	pelvis_list	pelvis_rotation	pelvis_tx	pelvis_ty	pelvis_tz	hip_flexion_r	hip_adduction_r	hip_rotation_r	knee_angle_r	ankle_angle_r	subtalar_angle_r	mtp_angle_r	hip_flexion_l	hip_adduction_l	hip_rotation_l	knee_angle_l	ankle_angle_l	subtalar_angle_l	mtp_angle_l	lumbar_extension	lumbar_bending	lumbar_rotation	arm_flex_r	arm_add_r	arm_rot_r	elbow_flex_r	pro_sup_r	wrist_flex_r	wrist_dev_r	arm_flex_l	arm_add_l	arm_rot_l	elbow_flex_l	pro_sup_l	wrist_flex_l	wrist_dev_l
      1.90000000	      0.54783676	      2.91901285	      1.11563756	     -0.07709315	      0.90272221	     -0.18811647	     26.70256556	     -1.47507377	     -9.65630049	    -13.72458761	      1.53978584	      3.82408450	      8.90532798	    -15.45743959	      4.82572172	      6.97534804	    -15.80924750	     12.09838922	      4.51486974	      9.62714534	     -6.87858934	     -0.75663753	     -9.22186219	     -8.69659706	    -15.80597189	      6.96675172	     18.43945404	     86.51662706	      0.00000000	      0.00000000	      0.63453212	    -19.44459022	     13.49427505	     31.92981051	     86.51662706	      0.00000000	      0.00000000
      1.91000000	      0.62698633	      2.78568972	      1.19768794	     -0.06303386	      0.90122472	     -0.18688473	     26.60330916	     -1.19904812	     -9.22358645	    -15.04083392	      0.64286219	      2.24738393	      8.85920279	    -15.81774556	      4.52494527	      6.58773753	    -16.92868579	     11.50882358	      5.20009973	     11.40187579	     -6.75050718	     -0.54701530	     -9.24304319	     -8.80049349	    -15.85864390	      7.13092173	     18.35093647	     86.51662706	      0.00000000	      0.00000000	      0.41805696	    -19.31327489	     13.45919677	     31.72457835	     86.51662706	      0.00000000	      0.00000000
      1.92000000	      0.68241688	      2.57386498	      1.23440663	     -0.04883215	      0.89967376	     -0.18561514	     26.53998391	     -0.80804716	     -8.71828908	    -16.46453016	     -0.54103634	      0.41046659	      8.78225549	    -16.05486071	      4.13587505	      6.09109350	    -18.19717481	     10.70675330	      5.92719971	     13.48955967	     -6.57342852	     -0.23379823	     -9.19697707	     -8.91797053	    -15.94957377	      7.28103890	     18.30061453	     86.51662706	      0.00000000	      0.00000000	      0.16031865	    -19.13383052	     13.41265888	     31.48280474	     86.51662706	      0.00000000	      0.00000000
      1.93000000	      0.72194780	      2.25592370	      1.22242473	     -0.03457533	      0.89829264	     -0.18425609	     26.53900434	     -0.28907108	     -8.15084210	    -17.93380091	     -1.93428009	     -1.53729772	      8.66797522	    -16.14677500	      3.63710892	      5.49962644	    -19.63751050	      9.62977304	      6.66050577	     15.84635247	     -6.35969235	      0.20691547	     -9.07897731	     -9.03490974	    -16.07814233	      7.41346955	     18.28440333	     86.51662706	      0.00000000	      0.00000000	     -0.12597440	    -18.90360922	     13.35855420	     31.19899541	     86.51662706	      0.00000000	      0.00000000
      1.94000000	      0.74837511	      1.81503867	      1.16768535	     -0.02035919	      0.89734563	     -0.18278439	     26.59733978	      0.35928051	     -7.52828530	    -19.41881615	     -3.41565535	     -3.44982610	      8.51603135	    -16.06941959	      3.02024563	      4.83394234	    -21.27549674	      8.21215412	      7.36360685	     18.39290726	     -6.12181077	      0.78457865	     -8.89416678	     -9.13846543	    -16.24163800	      7.52421876	     18.29947353	     86.51662706	      0.00000000	      0.00000000	     -0.43196687	    -18.62541344	     13.30217537	     30.87061401	     86.51662706	      0.00000000	      0.00000000
      1.95000000	      0.75840243	      1.25517624	      1.08365026	     -0.00623730	      0.89692942	     -0.18125326	     26.68216222	      1.12799743	     -6.86555187	    -20.90391094	     -4.83858052	     -5.20106198	      8.32964171	    -15.80089553	      2.29354978	      4.12016725	    -23.13360104	      6.39715944	      8.00370099	     21.01680199	     -5.86897372	      1.48839972	     -8.65624325	     -9.21978985	    -16.43495942	      7.60902576	     18.34501533	     86.51662706	      0.00000000	      0.00000000	     -0.75330786	    -18.30795395	     13.25030163	     30.49858090	     86.51662706	      0.00000000	      0.00000000
      1.96000000	      0.75053634	      0.60198932	      0.98623996	      0.00782988	      0.89690893	     -0.17973681	     26.74788185	      1.99600473	     -6.19423177	    -22.36293639	     -6.05456366	     -6.69738786	      8.11252249	    -15.32624599	      1.47879062	      3.39021301	    -25.22465672	      4.15264776	      8.55454213	     23.58000377	     -5.60676199	      2.28739576	     -8.38410013	     -9.27509337	    -16.65050583	      7.66364116	     18.42257522	     86.51662706	      0.00000000	      0.00000000	     -1.08849545	    -17.96484795	     13.21109975	     30.08711102	     86.51662706	      0.00000000	      0.00000000
      1.97000000	      0.72841147	     -0.10515882	      0.88917300	      0.02190890	      0.89704980	     -0.17824067	     26.75205098	      2.92915347	     -5.56293404	    -23.74869703	     -6.93652870	     -7.88320617	      7.86675836	    -14.64011346	      0.60366681	      2.68266681	    -27.54735972	      1.48717514	      8.99720410	     25.93115703	     -5.33989468	      3.13717467	     -8.09762132	     -9.30489974	    -16.87869795	      7.68430380	     18.53578562	     86.51662706	      0.00000000	      0.00000000	     -1.43564665	    -17.61231046	     13.19384390	     29.64295829	     86.51662706	      0.00000000	      0.00000000
      1.98000000	      0.69579973	     -0.82414429	      0.80355502	      0.03597199	      0.89719025	     -0.17670945	     26.66056943	      3.88452844	     -5.02816626	    -25.00308397	     -7.39821348	     -8.73917077	      7.59201916	    -13.74704481	     -0.30502809	      2.04247677	    -30.08550077	     -1.53715581	      9.31865269	     27.92164314	     -5.07590706	      3.99114980	     -7.81412577	     -9.31214037	    -17.10933554	      7.66838858	     18.68946494	     86.51662706	      0.00000000	      0.00000000	     -1.78918573	    -17.26609847	     13.20847079	     29.17425969	     86.51662706	      0.00000000	      0.00000000
      1.99000000	      0.65375414	     -1.52025925	      0.74147829	      0.04988968	      0.89730848	     -0.17510708	     26.44858597	      4.81810993	     -4.63979300	    -26.07554172	     -7.40624456	     -9.27489532	      7.28598475	    -12.66029285	     -1.22361315	      1.51756362	    -32.81124920	     -4.79915402	      9.50899785	     29.42347978	     -4.82709971	      4.81158962	     -7.54638555	     -9.30009832	    -17.33354467	      7.61513973	     18.88826792	     86.51662706	      0.00000000	      0.00000000	     -2.13800331	    -16.93864166	     13.26497151	     28.68925188	     86.51662706	      0.00000000	      0.00000000
      2.00000000	      0.60464264	     -2.17301273	      0.71922683	      0.06352892	      0.89747681	     -0.17346105	     26.10176646	      5.69101655	     -4.42821087	    -26.93605399	     -6.98221625	     -9.51950675	      6.94566572	    -11.39925312	     -2.12935627	      1.15202364	    -35.69014990	     -8.12370347	      9.55892197	     30.34635949	     -4.60948647	      5.57600109	     -7.30228701	     -9.27097869	    -17.54561894	      7.52635421	     19.13525184	     86.51662706	      0.00000000	      0.00000000	     -2.46595970	    -16.63735996	     13.37261174	     28.19516624	     86.51662706	      0.00000000	      0.00000000
      2.01000000	      0.55666247	     -2.77586956	      0.75627853	      0.07682593	      0.89778675	     -0.17185332	     25.61546254	      6.47322748	     -4.39911921	    -27.57842490	     -6.19425796	     -9.51320727	      6.56924834	     -9.98567800	     -2.99753914	      0.97775006	    -38.68429860	    -11.29917445	      9.45879242	     30.65074516	     -4.43958432	      6.27670205	     -7.08551262	     -9.22530312	    -17.74394771	      7.40685866	     19.43078989	     86.51662706	      0.00000000	      0.00000000	     -2.75452617	    -16.36468725	     13.53898004	     27.69756994	     86.51662706	      0.00000000	      0.00000000
      2.02000000	      0.52330423	     -3.32854354	      0.87051027	      0.08979255	      0.89830723	     -0.17039457	     24.99169038	      7.14571705	     -4.53665938	    -28.01543717	     -5.14064801	     -9.30131288	      6.15796634	     -8.44064688	     -3.80100540	      1.00758746	    -41.75199161	    -14.10567118	      9.20027990	     30.35423513	     -4.33094175	      6.91471728	     -6.89639736	     -9.16191206	    -17.93062442	      7.26463774	     19.77213585	     86.51662706	      0.00000000	      0.00000000	     -2.98651853	    -16.11959150	     13.76890825	     27.20030426	     86.51662706	      0.00000000	      0.00000000
      2.03000000	      0.51818194	     -3.82768602	      1.07276063	      0.10248105	      0.89907579	     -0.16918338	     24.23701321	      7.70064160	     -4.81125442	    -28.26923532	     -3.93023008	     -8.93056143	      5.71743017	     -6.78455279	     -4.51220906	      1.23261635	    -44.84505599	    -16.34937481	      8.78017310	     29.52948391	     -4.29183268	      7.49165056	     -6.73238804	     -9.07831569	    -18.10994114	      7.11051707	     20.15370678	     86.51662706	      0.00000000	      0.00000000	     -3.14970690	    -15.89984588	     14.06338580	     26.70600682	     86.51662706	      0.00000000	      0.00000000
      2.04000000	      0.54927247	     -4.26306448	      1.36317128	      0.11493360	      0.90010178	     -0.16826100	     23.36188251	      8.13915380	     -5.18772528	    -28.36184891	     -2.66454913	     -8.44680939	      5.25798700	     -5.03866604	     -5.10549761	      1.62435771	    -47.90591436	    -17.89550701	      8.20492586	     28.29368699	     -4.32446820	      8.00364863	     -6.58802894	     -8.97128076	    -18.28643050	      6.95738174	     20.56793360	     86.51662706	      0.00000000	      0.00000000	     -3.23942939	    -15.70410032	     14.41866253	     26.21703738	     86.51662706	      0.00000000	      0.00000000
      2.05000000	      0.61689009	     -4.62070564	      1.73009686	      0.12715567	      0.90136605	     -0.16759653	     22.38002265	      8.46821055	     -5.63094420	    -28.31015097	     -1.42524358	     -7.89330066	      4.79396206	     -3.22508789	     -5.55834806	      2.14092000	    -50.86625582	    -18.69122648	      7.49389870	     26.79165982	     -4.42530106	      8.43991101	     -6.45484838	     -8.83766431	    -18.46324255	      6.81900892	     21.00639855	     86.51662706	      0.00000000	      0.00000000	     -3.25980061	    -15.53293139	     14.82576689	     25.73650588	     86.51662706	      0.00000000	      0.00000000
      2.06000000	      0.71557135	     -4.88871578	      2.15160876	      0.13913119	      0.90282185	     -0.16710556	     21.30749240	      8.69803726	     -6.10828944	    -28.12609294	     -0.26814721	     -7.30911866	      4.34192989	     -1.36569144	     -5.85259756	      2.73504967	    -53.64973046	    -18.77116373	      6.67967319	     25.17617097	     -4.58581996	      8.78553713	     -6.32168154	     -8.67545024	    -18.64142969	      6.70867813	     21.46097132	     86.51662706	      0.00000000	      0.00000000	     -3.22342852	    -15.38852440	     15.27062786	     25.26906633	     86.51662706	      0.00000000	      0.00000000
